# xmcd CD database file
#
# Track frame offsets:
#	150
#	15817
#	33452
#	42572
#	64555
#	76040
#	95210
#	114370
#	130887
#	142867
#	158365
#	171925
#	178585
#	185490
#	207695
#
# Disc length: 2976 seconds
#
# Revision: 0
# Processed by: cddbd v1.4b42PL0 Copyright (c) Steve Scherf et al.
# Submitted via: CDex 1.40Beta6
#
DISCID=bf0b9e0f
DTITLE=Roberto Menabò - Laughing The Blues
DYEAR=1900
DGENRE=Blues
TTITLE0=Mean Old Frisco
TTITLE1=From Four Until Late
TTITLE2=Two Steps From Sunflower N.2
TTITLE3=Corn Flakes For Breakfast
TTITLE4=Sunday Morning Dance
TTITLE5=Do Lord Remember Me
TTITLE6=Dust My Broom
TTITLE7=Stack O'Lee Blues
TTITLE8=Saturday Night Stomp
TTITLE9=Come On In My Kitchen
TTITLE10=Sunshine On The Yazoo
TTITLE11=Irene
TTITLE12=Barber Shop Rag
TTITLE13=Mr. Tax Collector
TTITLE14=Santa Claus Blues
EXTD=
EXTT0=
EXTT1=
EXTT2=
EXTT3=
EXTT4=
EXTT5=
EXTT6=
EXTT7=
EXTT8=
EXTT9=
EXTT10=
EXTT11=
EXTT12=
EXTT13=
EXTT14=
PLAYORDER=
